<svg width="16" height="14" viewBox="0 0 16 14" fill="#fff" xmlns="http://www.w3.org/2000/svg">
<path fill-rule="evenodd" clip-rule="evenodd" d="M12.4 0.899994C12.4 0.399994 12 0 11.6 0H4.4C4 0 3.6 0.399994 3.6 0.899994L0 7V13.1C0 13.6 0.4 14 0.9 14H15.1C15.6 14 16 13.6 16 13.1V7L12.4 0.899994ZM5.1 1.8H10.9L13.4 6.10001H10.2C9.9 6.10001 9.7 6.30001 9.7 6.60001V6.89999C9.7 7.89999 9.1 8.7 8.1 8.8C7.1 8.9 6.2 8 6.2 7V6.60001C6.2 6.30001 6 6.10001 5.7 6.10001H2.5L5.1 1.8ZM13.8 12.3H2.2C2 12.3 1.8 12.2 1.8 11.9V8H4.6C5 9.5 6.4 10.6 8 10.6C9.7 10.6 11.1 9.5 11.5 8H14.2V11.9C14.2 12.2 14 12.3 13.8 12.3Z" fill="white"/>
</svg>
