<svg width="16" height="16" viewBox="0 0 16 16" fill="#fff" xmlns="http://www.w3.org/2000/svg">
<path fill-rule="evenodd" clip-rule="evenodd" d="M16 15C16 15.6 15.6 16 15 16H1C0.4 16 0 15.6 0 15V1C0 0.4 0.4 0 1 0H15C15.6 0 16 0.4 16 1V15ZM14 13.5V4.5C14 4.2 13.8 4 13.5 4H2.5C2.2 4 2 4.2 2 4.5V13.5C2 13.8 2.2 14 2.5 14H13.5C13.8 14 14 13.8 14 13.5ZM11 10.5V11.5C11 11.8 10.8 12 10.5 12H5.5C5.2 12 5 11.8 5 11.5V10.5C5 10.2 5.2 10 5.5 10H7V8H5.5C5.2 8 5 7.8 5 7.5V6.5C5 6.2 5.2 6 5.5 6H8.5C8.8 6 9 6.2 9 6.5V10H10.5C10.8 10 11 10.2 11 10.5Z" fill="white"/>
</svg>
