<svg width="16" height="15" viewBox="0 0 16 15" fill="none" xmlns="http://www.w3.org/2000/svg">
<path fill-rule="evenodd" clip-rule="evenodd" d="M16 8.4C16 9 15.6 9.4 15.1 9.4C14.6 9.4 14.2 9 14.2 8.4C14.2 4.8 11.4 1.9 8 1.9C4.6 1.9 1.8 4.8 1.8 8.4C1.8 9 1.4 9.4 0.9 9.4C0.4 9.4 0 9 0 8.4C0 3.8 3.6 0 8 0C12.4 0 16 3.8 16 8.4ZM8 9.4C7 9.4 6.2 10.2 6.2 11.2C6.2 12.3 7 13.1 8 13.1C9 13.1 9.8 12.3 9.8 11.2C9.8 10.2 9 9.4 8 9.4ZM11.6 11.2C11.6 13.3 10 15 8 15C6 15 4.4 13.3 4.4 11.2C4.4 9.5 5.6 8 7.1 7.6V4.7C7.1 4.2 7.5 3.7 8 3.7C8.5 3.7 8.9 4.2 8.9 4.7V7.6C10.4 8 11.6 9.5 11.6 11.2Z" fill="white"/>
</svg>
