<svg width="16" height="16" viewBox="0 0 16 16" fill="#fff" xmlns="http://www.w3.org/2000/svg">
<path fill-rule="evenodd" clip-rule="evenodd" d="M15.2 6.89999L13.8 6.60001C13.6667 5.93334 13.4333 5.33332 13.1 4.79999L13.8 3.79999C14.1 3.39999 14.1 2.8 13.7 2.5L13.5 2.29999C13.2 1.89999 12.6 1.90001 12.2 2.20001L11.2 2.89999C10.6667 2.56666 10.0667 2.33335 9.4 2.20001L9.1 0.799988C9.1 0.399988 8.6 0 8.2 0H7.8C7.4 0 6.9 0.399988 6.9 0.799988L6.6 2.20001C5.93333 2.33335 5.33333 2.56666 4.8 2.89999L3.8 2.20001C3.4 1.90001 2.8 1.89999 2.5 2.29999L2.3 2.5C1.9 2.8 1.9 3.39999 2.2 3.79999L2.9 4.79999C2.56667 5.33332 2.33333 5.93334 2.2 6.60001L0.799999 6.89999C0.399999 6.89999 0 7.39999 0 7.79999V8.20001C0 8.60001 0.399999 9.10001 0.799999 9.10001L2.2 9.39999C2.33333 10.0667 2.56667 10.6667 2.9 11.2L2.2 12.2C1.9 12.6 1.9 13.2 2.3 13.5L2.5 13.7C2.8 14.1 3.4 14.1 3.8 13.8L4.8 13.1C5.33333 13.4333 5.93333 13.6667 6.6 13.8L6.9 15.2C6.9 15.6 7.4 16 7.8 16H8.2C8.6 16 9.1 15.6 9.1 15.2L9.4 13.8C10.0667 13.6667 10.6667 13.4333 11.2 13.1L12.2 13.8C12.6 14.1 13.2 14.1 13.5 13.7L13.7 13.5C14.1 13.2 14.1 12.6 13.8 12.2L13.1 11.2C13.4333 10.6667 13.6667 10.0667 13.8 9.39999L15.2 9.10001C15.6 9.10001 16 8.60001 16 8.20001V7.79999C16 7.39999 15.6 6.89999 15.2 6.89999ZM8 11C6.3 11 5 9.7 5 8C5 6.3 6.3 5 8 5C9.7 5 11 6.3 11 8C11 9.7 9.7 11 8 11Z" fill="white"/>
</svg>
