<svg width="16" height="10" viewBox="0 0 16 10" fill="none" xmlns="http://www.w3.org/2000/svg">
<path d="M5.99995 10.0001C5.69995 10.0001 5.39995 9.90008 5.19995 9.60008L2.99995 6.70008L1.79994 8.60008C1.49994 9.00008 0.899945 9.10006 0.399945 8.80006C-5.47469e-05 8.50006 -0.100054 7.90007 0.199946 7.40007L2.19995 4.40007C2.29995 4.20007 2.59995 4.00007 2.99995 4.00007C3.29995 4.00007 3.59994 4.10007 3.79994 4.40007L5.79994 7.10008L8.09995 2.60008C8.29995 2.20008 8.59995 2.00007 8.89995 2.00007C9.29995 2.00007 9.59994 2.10007 9.79994 2.40007L11.7999 5.10008L14.0999 0.600078C14.3999 0.100078 14.9999 -0.0999218 15.3999 0.100078C15.8999 0.400078 16.0999 1.00007 15.8999 1.40007L12.8999 7.40007C12.6999 7.80007 12.3999 8.00007 12.0999 8.00007C11.6999 8.00007 11.3999 7.90008 11.1999 7.60008L9.19995 4.90007L6.89995 9.40007C6.69995 9.80007 6.39995 10.0001 6.09995 10.0001C6.03328 10.0001 5.99995 10.0001 5.99995 10.0001Z" fill="white"/>
</svg>
